<mxfile host="app.diagrams.net" modified="2023-12-18T11:30:38.431Z" agent="Mozilla/5.0 (Windows NT 10.0; Win64; x64) AppleWebKit/537.36 (KHTML, like Gecko) Chrome/120.0.0.0 Safari/537.36 Edg/120.0.0.0" etag="wVnzC8SRn88bISjtqAd7" version="22.1.11" type="github">
  <diagram name="Page-1" id="ASaLe4CyZuPNr01UTl9W">
    <mxGraphModel dx="1386" dy="793" grid="1" gridSize="10" guides="1" tooltips="1" connect="1" arrows="1" fold="1" page="1" pageScale="1" pageWidth="827" pageHeight="1169" math="0" shadow="0">
      <root>
        <mxCell id="0" />
        <mxCell id="1" parent="0" />
        <mxCell id="fCAfRg4DWkw_utpPl1P6-7" value="" style="edgeStyle=orthogonalEdgeStyle;rounded=0;orthogonalLoop=1;jettySize=auto;html=1;" edge="1" parent="1" source="fCAfRg4DWkw_utpPl1P6-1" target="fCAfRg4DWkw_utpPl1P6-6">
          <mxGeometry relative="1" as="geometry" />
        </mxCell>
        <mxCell id="fCAfRg4DWkw_utpPl1P6-1" value="document_section_files_list_uploaded_data" style="rounded=1;whiteSpace=wrap;html=1;fillColor=#dae8fc;strokeColor=#6c8ebf;" vertex="1" parent="1">
          <mxGeometry x="250" y="160" width="330" height="40" as="geometry" />
        </mxCell>
        <mxCell id="fCAfRg4DWkw_utpPl1P6-9" style="edgeStyle=orthogonalEdgeStyle;rounded=0;orthogonalLoop=1;jettySize=auto;html=1;" edge="1" parent="1" source="fCAfRg4DWkw_utpPl1P6-2" target="fCAfRg4DWkw_utpPl1P6-4">
          <mxGeometry relative="1" as="geometry" />
        </mxCell>
        <mxCell id="fCAfRg4DWkw_utpPl1P6-14" style="edgeStyle=orthogonalEdgeStyle;rounded=0;orthogonalLoop=1;jettySize=auto;html=1;exitX=0.5;exitY=1;exitDx=0;exitDy=0;entryX=0.5;entryY=0;entryDx=0;entryDy=0;" edge="1" parent="1" source="fCAfRg4DWkw_utpPl1P6-2" target="fCAfRg4DWkw_utpPl1P6-10">
          <mxGeometry relative="1" as="geometry" />
        </mxCell>
        <mxCell id="fCAfRg4DWkw_utpPl1P6-15" style="edgeStyle=orthogonalEdgeStyle;rounded=0;orthogonalLoop=1;jettySize=auto;html=1;exitX=0.5;exitY=1;exitDx=0;exitDy=0;" edge="1" parent="1" source="fCAfRg4DWkw_utpPl1P6-2" target="fCAfRg4DWkw_utpPl1P6-11">
          <mxGeometry relative="1" as="geometry" />
        </mxCell>
        <mxCell id="fCAfRg4DWkw_utpPl1P6-16" style="edgeStyle=orthogonalEdgeStyle;rounded=0;orthogonalLoop=1;jettySize=auto;html=1;exitX=0.5;exitY=1;exitDx=0;exitDy=0;entryX=0.5;entryY=0;entryDx=0;entryDy=0;" edge="1" parent="1" source="fCAfRg4DWkw_utpPl1P6-2" target="fCAfRg4DWkw_utpPl1P6-12">
          <mxGeometry relative="1" as="geometry" />
        </mxCell>
        <mxCell id="fCAfRg4DWkw_utpPl1P6-2" value="FileUploadData" style="rounded=1;whiteSpace=wrap;html=1;fillColor=#f8cecc;strokeColor=#b85450;" vertex="1" parent="1">
          <mxGeometry x="130" y="370" width="120" height="40" as="geometry" />
        </mxCell>
        <mxCell id="fCAfRg4DWkw_utpPl1P6-4" value="file_name&lt;br&gt;type: str" style="rounded=1;whiteSpace=wrap;html=1;fillColor=#fad7ac;strokeColor=#b46504;" vertex="1" parent="1">
          <mxGeometry x="50" y="510" width="90" height="40" as="geometry" />
        </mxCell>
        <mxCell id="fCAfRg4DWkw_utpPl1P6-8" style="edgeStyle=orthogonalEdgeStyle;rounded=0;orthogonalLoop=1;jettySize=auto;html=1;entryX=0.5;entryY=0;entryDx=0;entryDy=0;" edge="1" parent="1" source="fCAfRg4DWkw_utpPl1P6-6" target="fCAfRg4DWkw_utpPl1P6-2">
          <mxGeometry relative="1" as="geometry" />
        </mxCell>
        <mxCell id="fCAfRg4DWkw_utpPl1P6-6" value="List[FileUploadData]" style="rounded=0;whiteSpace=wrap;html=1;fillColor=#fad9d5;strokeColor=#ae4132;" vertex="1" parent="1">
          <mxGeometry x="235" y="270" width="360" height="30" as="geometry" />
        </mxCell>
        <mxCell id="fCAfRg4DWkw_utpPl1P6-10" value="people_name&lt;br&gt;type: str" style="rounded=1;whiteSpace=wrap;html=1;fillColor=#b0e3e6;strokeColor=#0e8088;" vertex="1" parent="1">
          <mxGeometry x="180" y="510" width="80" height="40" as="geometry" />
        </mxCell>
        <mxCell id="fCAfRg4DWkw_utpPl1P6-11" value="people_id&lt;br&gt;type: str" style="rounded=1;whiteSpace=wrap;html=1;fillColor=#b0e3e6;strokeColor=#0e8088;" vertex="1" parent="1">
          <mxGeometry x="300" y="510" width="80" height="40" as="geometry" />
        </mxCell>
        <mxCell id="fCAfRg4DWkw_utpPl1P6-12" value="upload_file_date&lt;br&gt;type: int" style="rounded=1;whiteSpace=wrap;html=1;fillColor=#d0cee2;strokeColor=#56517e;" vertex="1" parent="1">
          <mxGeometry x="450" y="510" width="100" height="40" as="geometry" />
        </mxCell>
      </root>
    </mxGraphModel>
  </diagram>
</mxfile>
